<svg width="155" height="157" viewBox="0 0 155 157" fill="none" xmlns="http://www.w3.org/2000/svg">
<g clip-path="url(#clip0)">
<path d="M0.490412 14.8103L10.8277 33.0161C11.1764 33.6314 11.76 34.0764 12.4425 34.2487L22.0866 36.6753L55.1639 69.966L58.8188 66.2887L25.2237 32.478C24.8931 32.1442 24.4785 31.9077 24.0246 31.7932L14.7578 29.4533L5.9567 13.9437L13.5024 6.34933L28.919 15.2158L31.2449 24.5423C31.3576 25.0003 31.5936 25.4186 31.9242 25.7514L65.5193 59.5631L69.173 55.8847L36.0957 22.594L33.6847 12.893C33.5135 12.205 33.0713 11.6166 32.46 11.2646L14.3698 0.861679C13.361 0.28392 12.0917 0.455108 11.2688 1.28002L0.932648 11.684C0.101329 12.5067 -0.0793919 13.7864 0.490412 14.8103Z" fill="#E40428"/>
<path d="M107.929 51.7589L51.0775 108.978L47.4226 105.3L104.275 48.0815L107.929 51.7589Z" fill="#E40428"/>
<path d="M41.1271 111.003C40.6594 110.22 39.8196 109.742 38.9117 109.742H23.4069C22.5001 109.742 21.6592 110.22 21.1925 111.003L13.4396 124.007C12.9474 124.831 12.9474 125.861 13.4396 126.686L21.1925 139.69C21.6592 140.472 22.5001 140.951 23.4069 140.951H38.9117C39.8196 140.951 40.6594 140.472 41.1271 139.69L48.879 126.686C49.3712 125.861 49.3712 124.831 48.879 124.007L41.1271 111.003ZM37.45 135.749H24.8697L18.6677 125.347L24.8697 114.943H37.45L43.6519 125.347L37.45 135.749Z" fill="#E40428"/>
<path d="M124.189 62.9261C141.257 62.9838 155.14 49.1048 155.198 31.9271C155.206 29.3122 154.887 26.708 154.249 24.1734C153.904 22.7792 152.502 21.9308 151.117 22.2774C150.662 22.3919 150.247 22.6284 149.915 22.9611L133.829 39.1405L121.066 34.8598L116.809 22.0175L132.896 5.82413C133.905 4.8077 133.904 3.16109 132.894 2.14573C132.561 1.81084 132.142 1.57332 131.684 1.45991C115.132 -2.75881 98.3174 7.32524 94.1257 23.9829C93.489 26.5101 93.1711 29.1078 93.1796 31.7153C93.186 33.7631 93.3954 35.8045 93.8079 37.8096L37.2134 94.7681C35.2212 94.354 33.1929 94.1433 31.1592 94.1358C14.0322 94.1358 0.148499 108.109 0.148499 125.347C0.148499 142.583 14.0322 156.556 31.1592 156.556C48.2852 156.556 62.1689 142.583 62.1689 125.347C62.1625 123.299 61.952 121.257 61.5406 119.252L75.0894 105.616L81.0149 111.58C82.0249 112.595 83.6599 112.595 84.6698 111.58L85.9614 110.279C87.0946 109.146 88.9263 109.146 90.0595 110.279C91.1917 111.415 91.1938 113.26 90.0648 114.399C90.0638 114.4 90.0616 114.402 90.0595 114.404L88.7679 115.704C87.759 116.72 87.759 118.366 88.7679 119.382L119.595 150.407C127.703 158.643 140.908 158.703 149.091 150.542C157.272 142.382 157.331 129.09 149.223 120.856C149.18 120.811 149.135 120.766 149.091 120.721L118.264 89.6967C117.255 88.6813 115.619 88.6813 114.61 89.6967L113.318 90.9966C112.184 92.1307 110.353 92.1307 109.219 90.9966C108.088 89.8604 108.085 88.0158 109.214 86.8774C109.216 86.8753 109.218 86.8742 109.219 86.8721L110.512 85.571C111.521 84.5557 111.521 82.909 110.512 81.8937L104.586 75.9299L118.135 62.2937C120.127 62.7078 122.156 62.9196 124.189 62.9261ZM134.343 151.355C132.465 151.352 130.604 151.011 128.847 150.346L149.029 130.033C152.075 138.187 147.976 147.281 139.875 150.346C138.107 151.015 136.233 151.358 134.343 151.355ZM105.067 83.7586C102.205 87.1941 102.654 92.3148 106.067 95.1939C109.067 97.7243 113.44 97.7222 116.436 95.1864L145.437 124.4C145.751 124.717 146.046 125.052 146.331 125.393L124.236 147.63C123.897 147.344 123.564 147.048 123.248 146.73L94.2257 117.518C97.0874 114.082 96.6388 108.962 93.2253 106.083C90.2254 103.551 85.8519 103.554 82.8551 106.089L78.7208 101.928L100.932 79.6073L105.067 83.7586ZM115.502 57.6L56.8791 116.589C56.2359 117.235 55.9776 118.174 56.1966 119.061C59.7419 133.074 51.3288 147.326 37.4047 150.893C23.4818 154.461 9.32064 145.994 5.77531 131.98C2.23105 117.967 10.6442 103.715 24.5682 100.147C28.7801 99.0681 33.1929 99.0681 37.4047 100.147C38.286 100.364 39.2162 100.104 39.8604 99.4608L98.4694 40.4705C99.1115 39.8242 99.3699 38.8859 99.1487 38C95.6279 24.1509 103.928 10.0514 117.689 6.50675C120.289 5.83804 122.978 5.58126 125.657 5.74924L112.026 19.4742C111.334 20.1697 111.091 21.2 111.401 22.1341L116.568 37.74C116.826 38.5157 117.432 39.1256 118.204 39.3834L133.71 44.5854C134.637 44.8967 135.661 44.6539 136.353 43.9584L149.985 30.2388C150.015 30.7352 150.031 31.2263 150.031 31.7153C150.104 46.0062 138.652 57.6502 124.453 57.7241C122.258 57.7348 120.07 57.463 117.944 56.9152C117.062 56.6937 116.13 56.9527 115.488 57.5989H115.502V57.6Z" fill="#E40428"/>
<path d="M133.772 131.309L130.118 134.988L104.277 108.98L107.93 105.302L133.772 131.309Z" fill="#E40428"/>
</g>
<defs>
<clipPath id="clip0">
<rect width="155" height="156" fill="white" transform="translate(0 0.5)"/>
</clipPath>
</defs>
</svg>
