<svg width="27" height="20" viewBox="0 0 27 20" fill="none" xmlns="http://www.w3.org/2000/svg">
<path d="M23.7876 0H2.35791C1.09854 0 0.0727539 1.0359 0.0727539 2.30769V17.6923C0.0727539 18.959 1.09346 20 2.35791 20H23.7876C25.0419 20 26.0728 18.9692 26.0728 17.6923V2.30769C26.0728 1.04103 25.0521 0 23.7876 0ZM23.4728 1.53846L13.1235 11.9897L2.68291 1.53846H23.4728ZM1.59619 17.3744V2.62051L8.93408 9.9641L1.59619 17.3744ZM2.67275 18.4615L10.0157 11.0462L12.5903 13.6205C12.8899 13.9179 13.3673 13.9179 13.6669 13.6205L16.1755 11.0872L23.4728 18.4615H2.67275ZM24.5493 17.3744L17.247 10L24.5493 2.62564V17.3744Z" fill="#E40428"/>
</svg>
