<svg width="430" height="460" viewBox="0 0 430 460" fill="none" xmlns="http://www.w3.org/2000/svg">
<path d="M65.4464 266.997C39.9599 266.997 19.1275 264.633 18.4626 261.678L22.2302 306.224C22.2302 327.352 41.659 344.565 65.4464 344.565C89.2338 344.565 108.663 327.278 108.663 306.224L112.43 261.678C111.913 264.633 91.0806 266.997 65.4464 266.997Z" fill="#DEC7B2"/>
<path d="M65.4463 266.997C39.5166 266.997 18.5364 264.559 18.3887 261.604V261.531C18.6103 258.502 39.5904 256.138 65.4463 256.138C91.3021 256.138 112.208 258.576 112.504 261.531V261.604C112.356 264.633 91.3021 266.997 65.4463 266.997Z" fill="#E8D4C1"/>
<path d="M65.4464 266.111C43.5797 266.111 25.85 264.042 25.7761 261.531V261.457C25.9977 258.945 43.6536 256.876 65.4464 256.876C87.2391 256.876 104.969 258.871 105.117 261.457V261.531C105.043 264.042 87.313 266.111 65.4464 266.111Z" fill="#BA9C7E"/>
<path d="M20.0879 280.812C23.1167 280.885 26.0717 282.067 28.6572 284.579C33.459 289.233 36.4879 296.473 40.4032 301.939C41.8807 298.984 43.1365 295.956 44.3185 292.853C45.7221 289.159 50.6717 285.687 54.587 288.716C58.7239 291.893 61.8266 295.586 64.56 300.093C66.8501 304.008 68.7708 308.588 72.3906 311.543C75.8627 314.35 79.8518 315.163 81.2554 310.139C82.5113 305.781 82.0681 301.053 83.4717 296.621C84.6536 293.001 86.5005 289.159 90.2681 287.534C94.7005 285.613 98.9852 287.977 102.9 289.972C105.264 291.154 107.555 292.41 109.845 293.739L109.032 303.121C104.969 300.61 100.093 297.507 95.9564 296.916C93.3708 296.547 93.5185 298.32 93.3708 300.757C93.223 302.974 93.223 305.19 93.1491 307.332C92.9275 311.839 92.2626 316.271 89.6032 319.965C83.9149 327.943 73.2771 327.574 65.8158 322.476C61.7527 319.743 58.8717 316.197 56.2861 312.134C55.4735 310.804 54.6609 309.401 53.8483 308.071C50.6717 315.532 45.7221 322.181 37.6699 319.374C32.6464 317.601 29.396 312.134 26.3672 308.071C25.4068 306.815 23.7077 303.712 22.0086 300.979L20.0879 280.812Z" fill="#EBDBCD"/>
<path d="M1.61941 114.891C2.57977 111.123 7.08608 110.532 9.74554 112.748C14.769 116.959 17.3545 122.721 20.1617 128.483C23.0428 134.541 26.5888 140.082 30.7257 145.327C39.1473 156.038 48.5293 166.085 54.7347 178.348C66.7023 202.21 69.5834 230.282 61.3095 255.842C61.0879 256.655 62.6392 252.592 60.0536 259.684C57.7635 266.111 48.6032 262.638 48.7509 255.177C48.8248 247.864 46.9041 241.067 43.6536 234.566C37.2266 221.712 29.2482 209.745 22.9689 196.743C16.6897 183.667 11.0753 170.222 6.64283 156.482C2.2104 143.184 -1.92653 128.927 1.61941 114.891Z" fill="#4C7378"/>
<path d="M60.2753 40.0564C63.4519 34.2204 72.9816 38.2096 71.0609 44.5627C65.5203 63.4006 69.5095 83.4204 72.9077 102.258C76.3798 121.539 80.4429 140.673 82.8807 160.101C87.0915 194.601 85.7618 233.384 63.8951 262.195C61.5311 265.298 56.5816 262.712 58.5023 259.019C60.6447 254.956 55.178 228.065 52.814 219.422C50.3762 210.557 47.8645 201.619 45.6483 192.754C41.2897 175.319 37.7438 157.516 36.7834 139.491C34.9365 104.548 43.5798 70.6402 60.2753 40.0564Z" fill="#57848A"/>
<path d="M70.6916 231.907C73.2771 220.161 71.3564 207.75 73.8681 196.004C76.306 184.553 79.7041 172.881 85.0231 162.391C90.1204 152.418 97.8771 145.326 106.964 139.195C115.533 133.359 125.654 127.671 128.683 117.033C130.456 110.753 141.241 111.64 140.576 118.658C139.173 132.916 133.115 145.474 126.171 157.737C118.71 170.813 112.209 183.371 108.515 197.999C102.236 223.189 96.8429 255.842 68.106 263.525C64.7078 264.485 65.2249 257.024 70.6916 231.907Z" fill="#689399"/>
<path d="M374.978 21.8094L373.574 20.4796L387.167 5.85254L397.805 20.6273L396.18 21.7354L387.02 9.02915L374.978 21.8094Z" fill="#E8D4C1"/>
<path d="M326.886 400.487C322.971 401.521 318.76 398.862 316.913 394.208L306.645 368.204C304.354 362.516 306.718 356.237 311.446 354.981L317.799 353.282C322.601 352.026 327.625 356.311 328.511 362.368L332.427 390.071C333.091 395.021 330.727 399.453 326.886 400.487Z" fill="#7A5B3C"/>
<path d="M163.551 400.487C167.466 401.521 171.677 398.862 173.524 394.208L183.792 368.204C186.082 362.516 183.718 356.237 178.991 354.981L172.637 353.282C167.836 352.026 162.812 356.311 161.926 362.368L158.01 390.071C157.272 395.021 159.636 399.453 163.551 400.487Z" fill="#7A5B3C"/>
<path d="M351.191 425.9C346.093 427.23 340.627 423.757 338.263 417.7L324.965 383.939C322.084 376.552 325.039 368.426 331.245 366.801L339.519 364.658C345.724 363.033 352.299 368.574 353.481 376.478L358.504 412.455C359.391 418.808 356.288 424.57 351.191 425.9Z" fill="#A67C52"/>
<path d="M139.172 425.9C144.27 427.23 149.736 423.757 152.1 417.7L165.398 383.939C168.279 376.552 165.324 368.426 159.118 366.801L150.844 364.658C144.639 363.033 138.064 368.574 136.882 376.478L131.859 412.455C131.046 418.808 134.075 424.57 139.172 425.9Z" fill="#A67C52"/>
<path d="M367.295 291.745H126.836C112.43 291.745 100.61 279.999 100.61 265.519V166.011C100.61 151.606 112.356 139.786 126.836 139.786H367.295C381.7 139.786 393.52 151.532 393.52 166.011V265.519C393.52 279.999 381.7 291.745 367.295 291.745Z" fill="#E40428"/>
<path d="M376.234 242.766C371.801 242.84 368.108 246.238 367.738 250.671C366.113 267.588 361.311 306.15 350.895 325.357C343.729 338.581 322.601 339.763 316.987 339.837H176.922C171.308 339.763 150.254 338.581 143.014 325.357C132.598 306.15 127.722 267.662 126.171 250.671C125.727 246.238 122.108 242.914 117.675 242.766L73.1293 242.102C68.032 242.028 63.9689 246.312 64.3383 251.41C65.8158 272.538 71.6518 324.471 94.1833 357.936C106.446 376.035 125.506 381.649 130.308 382.831C133.041 383.718 362.936 383.201 364.783 382.757C370.915 381.058 388.275 374.853 399.726 358.01C422.331 324.619 428.167 272.611 429.571 251.483C429.94 246.386 425.877 242.102 420.78 242.175L376.234 242.766Z" fill="#E40428"/>
<path d="M176.848 340.058H317.061C322.675 339.984 343.803 338.802 350.969 325.579C362.05 305.19 366.778 263.008 368.182 247.937C368.477 244.761 367.812 241.584 366.335 238.777L357.101 221.269C356.583 220.309 355.106 220.53 354.958 221.564C352.446 234.049 343.065 278.817 338.189 282.067C332.501 285.835 158.971 282.584 152.322 282.067C146.634 281.698 140.724 235.674 139.099 222.082C138.951 220.973 137.4 220.678 136.883 221.712L127.944 238.629C126.392 241.584 125.728 244.909 126.023 248.159C127.353 263.155 132.081 305.337 143.162 325.579C150.18 338.728 171.308 339.984 176.848 340.058Z" fill="#BD4A4A"/>
<path d="M330.727 339.837H159.636C159.118 339.837 158.675 339.837 158.232 339.763C141.019 339.098 129.938 322.624 136.218 307.849L143.974 289.603C144.639 288.051 146.191 283.988 146.191 283.988C152.839 269.139 163.403 265.446 178.104 265.446H312.333C327.034 265.446 340.479 273.055 344.542 284.727C344.542 284.727 345.798 288.051 346.463 289.603L354.219 307.849C360.499 322.624 349.418 339.098 332.205 339.763C331.688 339.837 331.171 339.837 330.727 339.837Z" fill="#A8362F"/>
<path d="M126.097 248.011C125.801 244.687 126.466 241.363 128.017 238.482L136.956 221.565C137.473 220.604 138.803 220.826 139.099 221.786C139.099 221.786 138.877 218.683 132.45 218.24H107.185C102.826 218.24 98.5418 219.496 94.8481 221.86L71.7255 236.857C66.8499 240.033 63.9688 245.574 64.2643 251.41C63.8949 246.312 67.958 242.028 73.0553 242.102L117.601 242.766C121.738 242.84 125.21 245.795 126.023 249.784L126.097 249.858C126.171 249.267 126.097 248.602 126.097 248.011Z" fill="#F2666E"/>
<path d="M368.182 248.011C368.477 244.687 367.517 241.436 365.965 238.481L357.027 221.638C356.51 220.678 355.18 220.899 354.884 221.86C354.884 221.86 355.106 218.757 361.533 218.314H386.724C391.082 218.314 395.441 219.57 399.061 221.934L422.183 236.93C427.133 240.107 429.94 245.721 429.645 251.483C430.014 246.386 425.877 242.101 420.854 242.175L376.308 242.84C372.097 242.914 368.846 245.869 368.108 249.858C368.034 249.932 368.108 248.602 368.182 248.011Z" fill="#F2666E"/>
<path d="M360.794 281.919C360.794 281.919 368.034 282.732 373.279 288.125C378.524 293.517 376.751 302.53 373.279 305.337C367.221 310.139 355.549 310.139 346.758 310.139C337.967 310.139 332.131 308.144 332.131 308.144L343.36 280.294C343.36 280.294 350.378 279.038 360.794 281.919Z" fill="#AB534D"/>
<path d="M257.075 366.209C252.717 374.114 248.432 381.945 244.147 389.775C241.266 395.02 245.256 402.186 250.279 404.181C256.411 406.618 261.803 403.294 264.684 398.049C269.043 390.145 273.328 382.314 277.612 374.483C280.493 369.238 276.504 362.072 271.481 360.078C265.423 357.566 259.956 360.891 257.075 366.209Z" fill="#FCB58A"/>
<path d="M297.484 117.033C297.484 117.033 287.954 86.5228 284.704 73.6687C279.755 53.7966 266.162 41.8291 247.028 41.8291C227.6 41.8291 214.007 54.0182 208.614 73.8164C203.147 94.2056 195.982 115.481 195.982 115.481C195.169 118.215 196.499 121.096 199.084 122.13C205.216 124.568 218.144 128.926 247.028 128.557C272.81 128.188 286.108 124.568 292.83 123.903C296.155 123.46 298.371 120.283 297.484 117.033Z" fill="#110580"/>
<path d="M258.036 107.429H236.021V145.474C236.021 148.355 238.311 150.645 241.192 150.645H252.864C255.746 150.645 258.036 148.355 258.036 145.474V107.429Z" fill="#FCB58A"/>
<path d="M246.733 38.8005C254.322 38.8005 260.473 32.6485 260.473 25.0599C260.473 17.4712 254.322 11.3193 246.733 11.3193C239.144 11.3193 232.992 17.4712 232.992 25.0599C232.992 32.6485 239.144 38.8005 246.733 38.8005Z" fill="#110580"/>
<path d="M428.758 84.6024H339.001C338.484 84.6024 338.041 84.1591 338.041 83.642V20.7753C338.041 20.2582 338.484 19.8149 339.001 19.8149H428.758C429.275 19.8149 429.718 20.2582 429.718 20.7753V83.7158C429.718 84.1591 429.275 84.6024 428.758 84.6024Z" fill="#EBDBCD"/>
<path d="M416.791 75.1465H350.969C350.526 75.1465 350.23 74.7772 350.23 74.4078V30.0835C350.23 29.6402 350.6 29.3447 350.969 29.3447H416.791C417.234 29.3447 417.529 29.7141 417.529 30.0835V74.4078C417.529 74.7772 417.16 75.1465 416.791 75.1465Z" fill="#FCFAF8"/>
<path d="M130.825 266.037C130.825 248.676 147.742 236.561 165.472 232.128C201.596 222.894 265.128 234.936 265.128 234.936L231.589 256.285C231.589 256.285 262.394 264.855 270.077 266.48C277.76 268.105 327.773 281.181 328.585 282.437C329.398 283.692 310.191 309.179 310.191 309.179C310.191 309.179 216.445 310.287 187.634 306.519C158.749 302.678 130.825 295.66 130.825 266.037Z" fill="#FF8A91"/>
<path d="M227.304 256.433C242.522 259.979 265.201 266.554 275.396 269.73C285.812 272.981 289.801 276.157 289.801 276.157C289.801 276.157 270.816 292.779 262.468 325.727C257.74 344.269 248.728 369.017 247.176 374.483C246.955 375.296 247.102 376.183 247.693 376.847C249.54 378.842 253.751 383.127 258.257 385.564C263.798 388.593 273.845 391.992 274.879 390.514C274.879 390.514 318.982 347.372 336.12 322.624C353.333 297.876 369.142 277.783 362.346 260.496C356.805 246.386 344.468 238.038 324.005 233.68C292.683 227.105 256.263 229.691 256.263 229.691C256.263 229.691 254.12 235.083 245.846 244.687C239.05 252.739 227.009 256.433 227.304 256.433Z" fill="#FFADB2"/>
<path d="M214.302 108.094C210.756 108.094 210.682 97.8258 210.682 96.6438C210.682 95.4618 210.756 85.1934 214.302 85.1934C217.848 85.1934 217.922 95.4618 217.922 96.6438C217.996 97.7519 217.848 108.094 214.302 108.094ZM214.302 87.1141C213.637 87.7789 212.603 91.1771 212.603 96.6438C212.603 102.037 213.637 105.509 214.302 106.174C214.967 105.509 216.001 102.11 216.001 96.6438C216.001 91.1033 214.967 87.7051 214.302 87.1141Z" fill="white"/>
<path d="M279.09 108.094C275.544 108.094 275.47 97.8258 275.47 96.6438C275.47 95.4618 275.544 85.1934 279.09 85.1934C282.635 85.1934 282.709 95.4618 282.709 96.6438C282.709 97.7519 282.635 108.094 279.09 108.094ZM279.09 87.1141C278.425 87.7789 277.39 91.1771 277.39 96.6438C277.39 102.037 278.425 105.509 279.09 106.174C279.754 105.509 280.789 102.11 280.789 96.6438C280.789 91.1033 279.754 87.7051 279.09 87.1141Z" fill="white"/>
<path d="M247.028 115.629C267.183 115.629 283.522 99.2902 283.522 79.1353C283.522 58.9804 267.183 42.6416 247.028 42.6416C226.873 42.6416 210.535 58.9804 210.535 79.1353C210.535 99.2902 226.873 115.629 247.028 115.629Z" fill="#FCB58A"/>
<path d="M209.796 81.7951C209.87 82.3861 209.87 82.9771 209.944 83.4942C209.944 83.5681 209.944 83.6419 210.018 83.7158C210.092 84.3806 210.165 84.9716 210.239 85.5626V85.6365C210.313 86.3014 210.461 86.9663 210.609 87.6311C213.047 77.5843 222.133 70.123 232.919 70.123C234.248 70.123 235.578 70.1968 236.834 70.4923C237.794 70.714 238.828 70.8617 239.789 70.8617C246.585 70.8617 252.2 65.7645 252.938 59.1158C252.938 59.1158 253.012 59.1158 253.012 59.0419C252.938 59.7068 252.791 60.4455 252.791 61.1843C252.791 68.941 259.07 75.2203 266.827 75.2203H266.901C274.51 76.7716 280.567 82.386 282.783 89.6996C283.227 88.0743 283.596 86.3753 283.892 84.75C283.892 84.6762 283.892 84.6023 283.892 84.5284C283.965 83.8635 284.113 83.1248 284.113 82.3861C284.113 82.1645 284.187 82.0167 284.187 81.8689C284.261 81.0563 284.261 80.2438 284.261 79.4312C284.261 78.7663 284.261 78.0275 284.187 77.4365C284.187 77.2149 284.113 77.0672 284.113 76.8456C284.039 76.3285 284.039 75.8852 284.039 75.4419C284.039 75.2203 283.965 74.9987 283.965 74.7771C283.892 74.3338 283.892 73.8905 283.744 73.4473C283.67 73.2257 283.67 73.0041 283.67 72.7825C283.596 72.3393 283.522 71.896 283.448 71.4527C283.374 71.2311 283.374 71.0833 283.301 70.8617C283.227 70.4185 283.079 69.9014 282.931 69.4582C282.857 69.3104 282.857 69.0888 282.783 68.941C282.636 68.4239 282.488 67.9807 282.34 67.4635C282.266 67.3158 282.266 67.2419 282.192 67.0942C281.971 66.577 281.823 65.9861 281.601 65.5428C281.528 65.469 281.528 65.395 281.528 65.3212C281.306 64.7302 281.01 64.1393 280.715 63.5483C277.538 56.678 272.22 50.9896 265.719 47.2221C263.65 46.0401 261.508 45.0059 259.218 44.1933C259.144 44.1194 259.07 44.1194 258.996 44.1194C258.331 43.8978 257.666 43.6761 257.001 43.4545C256.928 43.3807 256.78 43.3807 256.632 43.3807C255.155 43.0113 253.677 42.7158 252.126 42.4203C251.904 42.3464 251.756 42.3464 251.535 42.3464C250.944 42.2725 250.427 42.1987 249.836 42.1249C249.614 42.1249 249.392 42.0509 249.171 42.0509C248.432 41.977 247.62 41.9771 246.881 41.9771C226.27 41.9771 209.574 58.6725 209.574 79.2834C209.574 79.9482 209.574 80.687 209.648 81.3519C209.796 81.5735 209.796 81.6473 209.796 81.7951Z" fill="#110580"/>
<path d="M238.828 394.577C238.016 395.537 231.367 404.771 230.776 409.647C230.333 413.045 228.338 419.251 226.935 427.524C225.531 435.798 221.246 453.306 234.101 458.034C244.96 462.024 247.546 455.301 249.836 452.125C252.126 448.948 258.553 424.052 259.07 421.393C260.03 416 266.014 398.788 266.014 398.788C266.679 397.384 267.048 396.793 265.497 396.35C262.616 395.537 258.257 393.986 255.081 392.508C251.609 390.883 248.137 387.706 246.142 386.081C245.477 385.49 245.034 385.121 244.591 385.86C244.591 385.933 238.902 394.577 238.828 394.577Z" fill="#C7645D"/>
<path d="M188.446 166.159C177.144 176.28 168.131 188.838 167.244 204.5C166.358 220.604 176.035 232.941 190.145 239.442C194.356 241.437 199.38 240.624 201.891 236.339C204.034 232.646 202.999 226.514 198.789 224.593C189.48 220.309 183.053 213.956 184.531 203.022C185.935 192.828 193.248 184.923 200.562 178.422C208.835 171.035 196.646 158.846 188.446 166.159Z" fill="#FCB58A"/>
<path d="M288.989 178.274C292.757 183.224 296.007 188.469 298.74 194.01C301.03 198.737 304.133 204.278 303.542 209.745C302.286 221.047 289.875 227.179 281.011 231.981C271.333 237.226 279.902 252.148 289.654 246.829C303.099 239.516 317.504 229.986 320.164 213.66C321.567 205.238 319.13 197.629 315.657 190.02C312.407 182.781 308.639 175.91 303.764 169.557C300.883 165.938 296.376 163.869 292.018 166.455C288.472 168.671 286.108 174.581 288.989 178.274Z" fill="#F0A173"/>
<path d="M282.562 139.712C273.18 134.763 262.69 132.325 258.036 131.586C256.632 137.644 253.455 140.968 246.659 140.968C239.715 140.968 237.351 137.496 236.021 131.291C234.618 131.364 230.333 132.325 229.299 132.399C217.109 133.507 208.688 138.456 202.409 142.815C193.765 148.799 184.457 160.618 180.69 165.642C179.581 167.045 179.655 169.04 180.763 170.444C182.832 172.882 186.304 176.723 189.85 179.087C196.129 183.298 206.619 183.298 206.619 183.298L208.171 168.818C208.171 168.818 205.511 184.554 204.994 195.044C204.329 206.42 204.994 216.615 204.994 216.615L284.63 218.24C284.63 218.24 287.511 206.937 285.812 191.35C285.369 187.287 281.01 170 281.01 170L284.704 181.451C284.704 181.451 290.245 181.673 299.774 177.462C302.655 176.206 306.718 173.103 309.082 171.182C310.191 170.37 310.338 168.745 309.526 167.71C305.389 161.874 292.091 144.736 282.562 139.712Z" fill="white"/>
<path d="M247.028 115.555C243.187 115.555 239.493 114.964 236.021 113.856V120.652C239.493 121.76 243.335 121.76 247.176 121.465C252.347 120.948 254.564 119.987 258.036 118.51V113.856C254.637 114.964 250.944 115.555 247.028 115.555Z" fill="#E3996D"/>
<path d="M386.576 11.6148C386.354 11.6148 386.059 11.5409 385.837 11.2454C385.468 10.876 385.616 10.2851 385.985 9.98959L393.225 4.15354C393.594 3.85804 394.185 3.93188 394.48 4.30125C394.85 4.67062 394.702 5.26166 394.333 5.55716L387.093 11.3931C387.019 11.5409 386.798 11.6148 386.576 11.6148Z" fill="#D4BFA9"/>
<path d="M396.427 7.30887C397.498 6.5626 397.478 4.68221 396.382 3.10884C395.286 1.53547 393.529 0.864911 392.458 1.61118C391.386 2.35745 391.407 4.23791 392.503 5.81128C393.599 7.38465 395.356 8.05514 396.427 7.30887Z" fill="#D4BFA9"/>
<path d="M246.585 252.074C259.292 255.029 272.146 257.319 284.778 260.496C291.057 262.047 297.337 263.82 303.468 266.036C304.872 266.553 306.349 267.071 307.679 267.588C308.344 267.883 309.083 268.105 309.821 268.4C310.338 268.622 311.594 268.917 311.964 269.361C312.555 270.173 310.782 271.798 310.338 272.389C309.23 273.645 308.196 274.901 307.162 276.157C291.501 295.069 277.169 315.089 265.423 336.734C258.922 348.775 253.308 361.186 248.728 374.04C248.063 375.813 250.944 376.625 251.609 374.852C259.956 351.139 272.219 328.903 286.403 308.292C293.569 297.876 301.252 287.829 309.378 278.078C310.338 276.822 311.373 275.64 312.407 274.458C313.367 273.35 314.401 272.316 314.845 270.912C315.214 269.656 315.066 268.253 314.106 267.292C313.146 266.332 311.52 265.889 310.265 265.445C304.133 262.934 297.78 260.939 291.353 259.166C276.874 255.177 262.025 252.591 247.398 249.193C245.477 248.824 244.738 251.631 246.585 252.074Z" fill="white"/>
<path d="M200.414 182.928C200.414 182.928 205.216 177.831 206.915 174.359C208.614 170.813 210.683 164.238 210.683 164.238C210.683 164.238 209.205 173.916 208.319 178.127C207.063 183.963 205.659 186.77 205.659 186.77L201.079 186.548C201.079 186.548 200.857 185.736 200.783 184.849C200.636 183.963 200.414 182.928 200.414 182.928Z" fill="#E0E0E0"/>
<path d="M288.989 184.701C288.989 184.701 284.852 179.161 283.522 175.467C282.192 171.774 280.937 164.977 280.937 164.977C280.937 164.977 281.306 174.802 281.675 179.013C282.266 184.997 283.374 187.952 283.374 187.952L287.955 188.173C287.955 188.173 288.25 187.361 288.472 186.474C288.693 185.662 288.989 184.701 288.989 184.701Z" fill="#E0E0E0"/>
<path d="M293.2 249.489H197.164C193.987 249.489 191.18 247.199 190.515 244.022L179.138 186.696C178.326 182.485 181.502 178.644 185.787 178.644H308.27C312.702 178.644 315.953 182.854 314.845 187.139L299.701 244.465C298.962 247.42 296.228 249.489 293.2 249.489Z" fill="#C5C6E3"/>
<path d="M256.854 216.098C256.484 221.195 252.052 225.406 247.028 225.406C242.005 225.406 237.646 221.269 237.203 216.172C236.76 211.075 241.192 206.864 247.028 206.864C252.864 206.79 257.297 210.927 256.854 216.098Z" fill="#E8E9FF"/>
</svg>
