<svg width="23" height="23" viewBox="0 0 23 23" fill="none" xmlns="http://www.w3.org/2000/svg">
<path d="M21.9894 16.625V19.75C21.9906 20.0401 21.9312 20.3273 21.815 20.5931C21.6987 20.8589 21.5283 21.0975 21.3145 21.2936C21.1007 21.4898 20.8484 21.6391 20.5735 21.732C20.2987 21.8249 20.0075 21.8595 19.7186 21.8334C16.5132 21.4851 13.4342 20.3898 10.729 18.6354C8.21216 17.0361 6.07832 14.9023 4.47901 12.3854C2.71857 9.66794 1.62301 6.57397 1.28109 3.35419C1.25506 3.06613 1.28929 2.77581 1.38161 2.50171C1.47393 2.22761 1.62231 1.97574 1.81731 1.76212C2.0123 1.54851 2.24964 1.37784 2.51421 1.26098C2.77878 1.14412 3.06478 1.08363 3.35401 1.08335H6.47901C6.98454 1.07838 7.47462 1.25739 7.85793 1.58703C8.24123 1.91667 8.49159 2.37444 8.56234 2.87502C8.69424 3.87509 8.93885 4.85703 9.29151 5.8021C9.43166 6.17494 9.46199 6.58014 9.37891 6.96969C9.29583 7.35923 9.10282 7.7168 8.82276 8.00002L7.49984 9.32294C8.98271 11.9308 11.142 14.0901 13.7498 15.5729L15.0728 14.25C15.356 13.97 15.7135 13.7769 16.1031 13.6939C16.4926 13.6108 16.8978 13.6411 17.2707 13.7813C18.2157 14.1339 19.1977 14.3785 20.1978 14.5104C20.7038 14.5818 21.1659 14.8367 21.4962 15.2266C21.8266 15.6165 22.0021 16.1142 21.9894 16.625Z" stroke="#E40428" stroke-width="2" stroke-linecap="round" stroke-linejoin="round"/>
</svg>
