<svg width="27" height="27" viewBox="0 0 27 27" fill="none" xmlns="http://www.w3.org/2000/svg">
<path d="M26.6293 5.59941C26.4151 5.33838 26.094 5.18397 25.7543 5.18397L10.0906 5.18764L9.42609 1.74647C9.32273 1.21706 8.86127 0.838379 8.32598 0.838379H2.00215C1.38195 0.842055 0.879883 1.34206 0.879883 1.95603C0.879883 2.57367 1.38195 3.07367 2.00215 3.07367C2.00215 3.07367 6.04453 3.07367 7.39198 3.07367C7.68363 4.57 10.696 20.1288 11.3162 23.309H8.16354C7.76115 22.5406 6.95268 22.0185 6.02238 22.0185C4.68968 22.0185 3.60433 23.0994 3.60433 24.4266C3.60433 25.7575 4.68968 26.8384 6.02238 26.8384C6.95268 26.8384 7.75746 26.309 8.16354 25.5443L20.3571 25.5406C20.7632 26.3053 21.5717 26.8347 22.4983 26.8347C23.8347 26.831 24.9163 25.7501 24.9163 24.4229C24.9163 23.0957 23.831 22.0148 22.4983 22.0148C21.568 22.0148 20.7632 22.5369 20.3571 23.309H13.6014L11.9327 14.6766H24.2223C24.7576 14.6766 25.2117 14.3016 25.3261 13.7869L26.8581 6.53691C26.9246 6.20235 26.836 5.85676 26.6293 5.59941ZM23.3105 12.434C21.9704 12.434 13.9115 12.434 11.4971 12.4376L10.5262 7.41926C13.8635 7.41926 22.5094 7.41558 24.3737 7.41926C24.0488 8.93764 23.5356 11.3568 23.3105 12.434Z" fill="#E40428"/>
</svg>
