<svg width="80" height="81" viewBox="0 0 80 81" fill="none" xmlns="http://www.w3.org/2000/svg">
<path d="M79.0407 15.1168C78.3838 14.3161 77.3986 13.8424 76.3567 13.8424L28.3059 13.8537L26.2675 3.29741C25.9504 1.67336 24.5348 0.511719 22.8927 0.511719H3.49349C1.59094 0.522997 0.0507812 2.05682 0.0507812 3.94026C0.0507812 5.83498 1.59094 7.3688 3.49349 7.3688C3.49349 7.3688 15.8941 7.3688 20.0276 7.3688C20.9222 11.959 30.1632 59.6879 32.0657 69.4434H22.3944C21.16 67.0863 18.6799 65.4848 15.8261 65.4848C11.7379 65.4848 8.40842 68.8006 8.40842 72.872C8.40842 76.9546 11.7379 80.2704 15.8261 80.2704C18.6799 80.2704 21.1487 78.6463 22.3944 76.3005L59.8 76.2892C61.0457 78.6351 63.5258 80.2591 66.3683 80.2591C70.4678 80.2478 73.786 76.9321 73.786 72.8607C73.786 68.7893 70.4565 65.4735 66.3683 65.4735C63.5145 65.4735 61.0457 67.075 59.8 69.4434H39.0757L33.957 42.9625H71.6569C73.299 42.9625 74.692 41.8121 75.043 40.2332L79.7428 17.9928C79.9466 16.9665 79.6748 15.9063 79.0407 15.1168ZM68.8597 36.0828C64.7489 36.0828 40.027 36.0828 32.6207 36.0941L29.6423 20.6995C39.8798 20.6995 66.4023 20.6882 72.1213 20.6995C71.1247 25.3574 69.5506 32.7783 68.8597 36.0828Z" fill="#E40428"/>
</svg>
