<svg width="30" height="27" viewBox="0 0 30 27" fill="none" xmlns="http://www.w3.org/2000/svg">
<path d="M6.41559 11.0672H11.5865C12.0522 11.0672 12.4296 10.6898 12.4296 10.2241C12.4296 9.75841 12.0522 9.381 11.5865 9.381H6.41559C5.94992 9.381 5.57251 9.75841 5.57251 10.2241C5.57251 10.6898 5.94992 11.0672 6.41559 11.0672Z" fill="#E40428"/>
<path d="M6.41559 14.4395H11.5865C12.0522 14.4395 12.4296 14.0621 12.4296 13.5964C12.4296 13.1308 12.0522 12.7533 11.5865 12.7533H6.41559C5.94992 12.7533 5.57251 13.1308 5.57251 13.5964C5.57251 14.0621 5.94992 14.4395 6.41559 14.4395Z" fill="#E40428"/>
<path d="M13.2727 24.5565C14.7138 24.5565 16.1238 24.349 17.469 23.9393L23.0766 26.1825C23.3611 26.2962 23.6826 26.2462 23.9184 26.0565C24.1557 25.8655 24.2714 25.5614 24.2213 25.2611L23.3765 20.192C25.0192 18.3014 25.9189 15.9751 25.9189 13.5964C25.9189 12.0233 25.5261 10.4612 24.7784 9.04004L29.0443 4.7739C29.3736 4.44479 29.3736 3.91106 29.0443 3.58173L26.6597 1.19716C26.5016 1.03886 26.2871 0.950165 26.0636 0.950165C25.8401 0.950165 25.6256 1.03886 25.4675 1.19716L21.4392 5.22552C19.1582 3.55121 16.2893 2.63633 13.2727 2.63633C6.6279 2.63633 0.514008 7.2487 0.514008 13.5964C0.514008 19.9751 6.66566 24.5565 13.2727 24.5565ZM15.9007 13.6105L16.631 14.3407L15.1703 15.0712L15.9007 13.6105ZM18.0543 13.3795L16.8619 12.1871L22.0965 6.95253L23.6791 5.37021L24.8712 6.56238L18.0543 13.3795ZM26.0636 2.98542L27.2558 4.17781L26.0636 5.37021L24.8712 4.17781L26.0636 2.98542ZM13.2727 4.3225C15.8375 4.3225 18.273 5.067 20.2307 6.43394L15.0734 11.591C15.0082 11.6562 14.9496 11.7421 14.9156 11.8101L12.7578 16.1257H6.41559C5.94992 16.1257 5.57251 16.5031 5.57251 16.9688C5.57251 17.4344 5.94992 17.8118 6.41559 17.8118H13.2727C13.4411 17.8118 13.5974 17.762 13.7291 17.677L18.4313 15.3258C18.5011 15.2909 18.5854 15.2328 18.6504 15.1678L23.519 10.2992C23.9926 11.3467 24.2328 12.4515 24.2328 13.5964C24.2328 15.7085 23.4134 17.699 21.8629 19.3527C21.6833 19.5443 21.6032 19.8087 21.6462 20.068L22.3117 24.0603L17.8152 22.2617C17.631 22.1882 17.4268 22.1818 17.2385 22.2437C15.9749 22.6596 14.6407 22.8703 13.2727 22.8703C7.16734 22.8703 2.20018 18.71 2.20018 13.5964C2.20018 8.48281 7.16734 4.3225 13.2727 4.3225Z" fill="#E40428"/>
</svg>
